#!OML:ASF X:\für Bonn\!DataBase\2005_08_12_Daniel\c3d\Daniel.ASF
:FULLY-SPECIFIED
:DEGREES
77
root -7.39562 17.841 16.9333 -520.636 56.309 -516.846
lowerback 12.6406 2.28524 6.10926
upperback 0.15019 4.07088 0.9599
thorax -6.58562 1.84077 -3.15126
lowerneck -5.26687 7.82112 -0.0659548
upperneck -0.066694 10.7925 -8.65841
head 1.39377 5.33126 -2.39751
rclavicle 1.35273e-013 7.95139e-015
rhumerus -59.5362 25.3246 -108.691
rradius 102.855
rwrist -2.62327
rhand -20.808 33.9395
rfingers 7.12502
rthumb 5.5597 4.03247
lclavicle 1.35273e-013 7.95139e-015
lhumerus -79.7234 -2.48543 93.4956
lradius 101.235
lwrist 16.7291
lhand -8.25783 -12.1944
lfingers 7.12502
lthumb 17.6607 17.0236
rfemur 13.4594 1.49766 26.4268
rtibia 34.6502
rfoot 8.70128 -9.82163
rtoes -15.2344
lfemur -32.638 7.80468 -21.9112
ltibia 55.0225
lfoot -15.2152 -2.93772
ltoes -9.73612
78
root -7.16158 17.8397 16.7383 -521.072 55.4477 -517.039
lowerback 12.5009 2.17635 6.11843
upperback 0.18178 3.91769 0.973849
thorax -6.48814 1.77086 -3.10715
lowerneck -5.36048 7.81978 -0.131955
upperneck -0.107323 10.7958 -8.64164
head 1.39175 5.33321 -2.37766
rclavicle 8.62725e-014 3.02153e-014
rhumerus -60.1273 25.39 -109.035
rradius 102.396
rwrist -2.41146
rhand -21.1509 33.885
rfingers 7.12502
rthumb 5.22867 3.96949
lclavicle 8.62725e-014 3.02153e-014
lhumerus -79.0946 -2.06192 93.3388
lradius 101.639
lwrist 16.8004
lhand -8.68521 -12.291
lfingers 7.12502
lthumb 17.2494 16.9635
rfemur 13.1454 0.85346 26.3373
rtibia 36.6412
rfoot 9.02377 -8.69382
rtoes -15.6264
lfemur -32.048 7.79381 -22.0544
ltibia 52.6625
lfoot -15.7254 -2.24624
ltoes -10.644
79
root -6.93127 17.8279 16.5413 -521.477 54.5488 -517.094
lowerback 12.4695 2.03753 6.26404
upperback 0.242508 3.75447 0.999161
thorax -6.41393 1.69254 -3.13129
lowerneck -5.47457 7.81789 -0.273363
upperneck -0.151995 10.8024 -8.58537
head 1.38462 5.33703 -2.33147
rclavicle 1.10325e-013 -1.90833e-014
rhumerus -60.5634 25.2906 -109.321
rradius 101.875
rwrist -2.347
rhand -21.2935 33.5267
rfingers 7.12502
rthumb 5.09095 3.60786
lclavicle 1.10325e-013 -1.90833e-014
lhumerus -78.3684 -1.64108 93.1998
lradius 102.073
lwrist 16.9235
lhand -8.95939 -12.1569
lfingers 7.12502
lthumb 16.9855 17.1205
rfemur 12.8031 0.279991 26.3377
rtibia 38.7767
rfoot 9.15921 -7.58656
rtoes -15.9552
lfemur -31.4888 7.89684 -22.1736
ltibia 50.6549
lfoot -16.0551 -1.40604
ltoes -11.2623
80
root -6.70468 17.8011 16.3458 -521.899 53.6438 -517.06
lowerback 12.531 1.87425 6.47638
upperback 0.339428 3.57711 1.03633
thorax -6.35226 1.6068 -3.18204
lowerneck -5.50144 7.8339 -0.396215
upperneck -0.303592 10.8249 -8.58632
head 1.33364 5.35448 -2.31197
rclavicle 2.50469e-014 1.59028e-015
rhumerus -60.7991 25.0631 -109.522
rradius 101.28
rwrist -2.55171
rhand -21.1614 32.9849
rfingers 7.12502
rthumb 5.2185 3.06911
lclavicle 2.50469e-014 1.59028e-015
lhumerus -77.5952 -1.21779 93.0576
lradius 102.532
lwrist 17.1156
lhand -9.15591 -11.9533
lfingers 7.12502
lthumb 16.7964 17.3402
rfemur 12.4728 -0.226558 26.4151
rtibia 41.0511
rfoot 9.06382 -6.40525
rtoes -16.4364
lfemur -30.9316 8.23273 -22.3233
ltibia 49.0536
lfoot -16.3028 -0.535828
ltoes -11.6465
81
root -6.48322 17.7537 16.1543 -522.378 52.724 -516.976
lowerback 12.7069 1.68171 6.7426
upperback 0.479157 3.37885 1.07078
thorax -6.30916 1.51072 -3.26688
lowerneck -5.54338 7.84633 -0.635494
upperneck -0.488322 10.8451 -8.51186
head 1.26206 5.37284 -2.249
rclavicle 9.34288e-015 -1.59028e-015
rhumerus -60.881 24.7287 -109.671
rradius 100.573
rwrist -2.85564
rhand -20.981 32.3799
rfingers 7.12502
rthumb 5.39273 2.46852
lclavicle 9.34288e-015 -1.59028e-015
lhumerus -76.7904 -0.745635 92.8734
lradius 103.039
lwrist 17.2448
lhand -9.12083 -11.6865
lfingers 7.12502
lthumb 16.8301 17.6042
rfemur 12.1515 -0.764865 26.5021
rtibia 43.4615
rfoot 8.91669 -5.07547
rtoes -16.5278
lfemur -30.3842 8.96414 -22.5356
ltibia 47.919
lfoot -16.4664 0.21372
ltoes -11.5056
82
root -6.26557 17.6871 15.9656 -523.054 51.862 -517.007
lowerback 13.0064 1.49434 6.9587
upperback 0.652728 3.18701 1.04913
thorax -6.29889 1.41859 -3.38858
lowerneck -5.59273 7.85663 -0.960338
upperneck -0.681687 10.8634 -8.34629
head 1.17748 5.39133 -2.14309
rclavicle 4.75095e-014 2.70347e-014
rhumerus -60.9365 24.2346 -109.771
rradius 99.7474
rwrist -3.24247
rhand -20.8654 31.9493
rfingers 7.12502
rthumb 5.5043 2.04075
lclavicle 4.75095e-014 2.70347e-014
lhumerus -76.0596 -0.30452 92.6794
lradius 103.631
lwrist 17.3363
lhand -8.9377 -11.5355
lfingers 7.12502
lthumb 17.0064 17.7401
rfemur 11.8423 -1.34473 26.4066
rtibia 46.0366
rfoot 8.83986 -3.61089
rtoes -16.2631
lfemur -29.7689 9.85638 -22.849
ltibia 47.2339
lfoot -16.5815 1.01057
ltoes -8.74982
83
root -6.05008 17.6082 15.7785 -523.939 51.0772 -517.252
lowerback 13.3438 1.30919 6.98619
upperback 0.860151 2.97253 1.01272
thorax -6.28526 1.32218 -3.41629
lowerneck -5.5838 7.8853 -1.39102
upperneck -0.956781 10.9074 -8.17802
head 1.05137 5.42842 -2.02321
rclavicle 9.34288e-015 1.59028e-014
rhumerus -60.9648 23.6972 -109.742
rradius 98.8484
rwrist -3.64089
rhand -20.7674 31.6986
rfingers 7.12502
rthumb 5.59889 1.7926
lclavicle 9.34288e-015 1.59028e-014
lhumerus -75.3357 0.248552 92.5164
lradius 104.297
lwrist 17.3926
lhand -8.55585 -11.4455
lfingers 7.12502
lthumb 17.3739 17.798
rfemur 11.4695 -1.9027 26.0968
rtibia 48.7792
rfoot 8.74884 -2.27861
rtoes -16.2172
lfemur -29.1181 10.7519 -23.297
ltibia 46.9593
lfoot -16.7211 1.74753
ltoes -4.07043
84
root -5.83858 17.5101 15.5953 -524.974 50.3465 -517.655
lowerback 13.716 1.12534 6.92069
upperback 1.10797 2.74363 0.91418
thorax -6.25018 1.22283 -3.45436
lowerneck -5.66351 7.926 -1.73784
upperneck -1.23272 10.9664 -8.0299
head 0.947556 5.47093 -1.92051
rclavicle 3.57812e-014 -6.36111e-015
rhumerus -60.8068 23.0693 -109.643
rradius 97.771
rwrist -3.93607
rhand -20.8247 31.7039
rfingers 7.12502
rthumb 5.54358 1.7964
lclavicle 3.57812e-014 -6.36111e-015
lhumerus -74.4721 0.765541 92.3689
lradius 104.985
lwrist 17.3649
lhand -8.1745 -11.4246
lfingers 7.12502
lthumb 17.7409 17.7861
rfemur 11.0085 -2.41335 25.609
rtibia 51.7074
rfoot 8.48946 -1.09495
rtoes -16.3535
lfemur -28.3734 11.6043 -23.9003
ltibia 47.0409
lfoot -16.9539 2.36718
ltoes -0.0258604
85
root -5.63026 17.3981 15.4167 -526.118 49.6311 -518.193
lowerback 14.1265 0.915688 6.77678
upperback 1.37793 2.46659 0.747097
thorax -6.21745 1.10201 -3.51185
lowerneck -5.77164 8.00292 -1.90366
upperneck -1.51852 11.066 -7.97871
head 0.864469 5.53198 -1.87615
rclavicle -7.4743e-014 1.59028e-014
rhumerus -60.4903 22.4144 -109.544
rradius 96.5114
rwrist -4.11432
rhand -21.0889 31.817
rfingers 7.12502
rthumb 5.2885 1.90298
lclavicle -7.4743e-014 1.59028e-014
lhumerus -73.6445 1.30085 92.1876
lradius 105.862
lwrist 17.369
lhand -7.69507 -11.5284
lfingers 7.12502
lthumb 18.2022 17.64
rfemur 10.4031 -2.9543 24.9827
rtibia 54.8234
rfoot 8.06583 0.106111
rtoes -17.3051
lfemur -27.5573 12.2778 -24.5878
ltibia 47.4263
lfoot -17.3551 2.87425
ltoes 2.43042
86
root -5.42324 17.2764 15.2401 -527.33 48.9662 -518.805
lowerback 14.5641 0.726211 6.53922
upperback 1.6971 2.20216 0.54418
thorax -6.14721 0.993402 -3.555
lowerneck -5.94758 8.10056 -1.98083
upperneck -1.85301 11.1894 -7.96636
head 0.786127 5.60507 -1.85606
rclavicle 1.13904e-013 2.54444e-014
rhumerus -59.9379 21.6365 -109.351
rradius 95.0003
rwrist -4.0913
rhand -21.5346 32.0936
rfingers 7.12502
rthumb 4.85815 2.16927
lclavicle 1.13904e-013 2.54444e-014
lhumerus -72.7339 1.76926 92.0904
lradius 106.822
lwrist 17.4139
lhand -7.34688 -11.767
lfingers 7.12502
lthumb 18.5372 17.3697
rfemur 9.64875 -3.47043 24.2608
rtibia 58.107
rfoot 7.47523 1.22061
rtoes -18.6919
lfemur -26.6498 12.5599 -25.2418
ltibia 48.0824
lfoot -18.0469 3.43904
ltoes 5.33529
87
root -5.21836 17.1471 15.0672 -528.525 48.2582 -519.458
lowerback 14.994 0.524196 6.24755
upperback 2.00984 1.91237 0.332213
thorax -6.08265 0.873757 -3.57012
lowerneck -6.04252 8.2297 -1.94824
upperneck -2.26457 11.3433 -8.06048
head 0.68482 5.69733 -1.89172
rclavicle -9.95911e-014 2.54444e-014
rhumerus -59.3701 20.8083 -109.106
rradius 93.4189
rwrist -3.8905
rhand -22.1483 32.3285
rfingers 7.12502
rthumb 4.26553 2.39142
lclavicle -9.95911e-014 2.54444e-014
lhumerus -71.5907 2.15682 92.0398
lradius 107.721
lwrist 17.5183
lhand -7.09198 -12.0347
lfingers 7.12502
lthumb 18.7824 17.0785
rfemur 8.68811 -3.97902 23.5049
rtibia 61.515
rfoot 6.74529 2.07443
rtoes -19.7951
lfemur -25.741 12.288 -25.8282
ltibia 48.9838
lfoot -18.9702 4.25666
ltoes 8.42485
88
root -5.01271 17.0197 14.8972 -529.715 47.5287 -520.177
lowerback 15.412 0.3194 5.83765
upperback 2.31734 1.5984 0.109558
thorax -6.02112 0.744818 -3.52231
lowerneck -6.11623 8.39762 -1.77501
upperneck -2.72408 11.5398 -8.27901
head 0.583918 5.81211 -1.99013
rclavicle -1.19271e-015 2.70347e-014
rhumerus -58.7926 19.9373 -108.803
rradius 91.7907
rwrist -3.66562
rhand -22.7867 32.4577
rfingers 7.12502
rthumb 3.6491 2.50924
lclavicle -1.19271e-015 2.70347e-014
lhumerus -70.053 2.45004 92.0121
lradius 108.383
lwrist 17.7414
lhand -7.02554 -12.2895
lfingers 7.12502
lthumb 18.8463 16.8176
rfemur 7.55174 -4.41874 22.713
rtibia 64.987
rfoot 5.91716 2.54286
rtoes -20.366
lfemur -24.8646 11.7091 -26.3864
ltibia 50.1127
lfoot -20.2916 5.07946
ltoes 11.1706
89
root -4.80785 16.894 14.7287 -530.891 46.7848 -520.95
lowerback 15.7987 0.124004 5.33951
upperback 2.62187 1.28018 -0.114251
thorax -5.94528 0.616064 -3.42136
lowerneck -6.12552 8.59095 -1.60162
upperneck -3.26716 11.7632 -8.52346
head 0.449356 5.94569 -2.10189
rclavicle 2.5842e-014 4.13472e-014
rhumerus -58.1245 19.0599 -108.422
rradius 90.0265
rwrist -3.4486
rhand -23.5126 32.4293
rfingers 7.12502
rthumb 2.94811 2.4699
lclavicle 2.5842e-014 4.13472e-014
lhumerus -68.2236 2.66353 92.0115
lradius 108.905
lwrist 17.9985
lhand -7.11238 -12.4623
lfingers 7.12502
lthumb 18.7627 16.6528
rfemur 6.26314 -4.80567 21.8744
rtibia 68.4737
rfoot 5.14576 2.67036
rtoes -19.9851
lfemur -24.0575 11.0095 -26.9135
ltibia 51.4309
lfoot -21.6968 5.6337
ltoes 12.1766
